<svg id="logo17" className="header__logo-svg" viewBox="0 0 130 28"><g fill="none" fill-rule="evenodd"><g fill="#000"><path d="M127.955 26.756v-5.104l-2.208 5.104h-.33l-2.198-5.104v5.104h-.807v-6.201h1.157l2.013 4.667 2.023-4.667h1.158v6.2zM119.691 23.727c0-1.45-.934-2.52-2.383-2.52-1.459 0-2.383 1.07-2.383 2.52 0 1.441.924 2.52 2.383 2.52 1.45 0 2.383-1.079 2.383-2.52m-5.602 0c0-1.83 1.293-3.207 3.219-3.207 1.916 0 3.22 1.376 3.22 3.207 0 1.832-1.304 3.208-3.22 3.208-1.926 0-3.22-1.376-3.22-3.208M106.795 23.727c0-1.905 1.468-3.207 3.336-3.207 1.147 0 1.945.53 2.46 1.227l-.68.363a2.218 2.218 0 00-1.78-.902c-1.42 0-2.5 1.041-2.5 2.52 0 1.468 1.08 2.519 2.5 2.519.739 0 1.41-.372 1.78-.902l.69.363c-.545.706-1.323 1.227-2.47 1.227-1.868 0-3.336-1.302-3.336-3.208M104.19 25.849a.95.95 0 01.943-.94.95.95 0 01.942.94.95.95 0 01-.942.94.95.95 0 01-.943-.94M102.572 25.972s-.523.212-.987.212c-1.119 0-1.876-.486-2.273-1.457-.398-.971-.596-2.56-.596-4.768V8.533h3.31v-.71h-3.323V.046h-.39c0 .634-2.38 7.746-6.586 7.775H89.71l.002.709h2.382v10.149c0 1.619.199 2.957.596 4.017.397 1.06.941 1.905 1.633 2.538a5.97 5.97 0 002.428 1.347 10.63 10.63 0 002.936.397c1.267 0 2.291-.184 3.074-.551l-.19-.455zM85.9 24.703c-.869.927-2.156 1.39-3.862 1.39h-4.192l9.708-17.166V7.824h-15.71v5.295h.442c.147-1.53.706-2.677 1.677-3.442.97-.764 2.059-1.147 3.265-1.147h3.795L71.05 25.828v.97h16.945v-5.78h-.44c-.237 1.53-.789 2.758-1.656 3.685M41.211 18.856c0 1.207-.03 2.265-.088 3.177-.06.912-.192 1.677-.398 2.295-.205.618-.515 1.08-.926 1.39-.413.309-.97.463-1.677.463-.706 0-1.265-.154-1.677-.464-.412-.308-.721-.771-.927-1.39-.206-.617-.338-1.382-.397-2.294-.06-.912-.088-1.97-.088-3.177v-3.442c0-1.177.029-2.236.088-3.178.059-.94.191-1.727.397-2.36.206-.633.515-1.118.927-1.457.412-.338.97-.507 1.677-.507.706 0 1.264.17 1.677.507.411.339.72.824.926 1.457.206.633.338 1.42.398 2.36.058.942.088 2.001.088 3.178v3.442zm4.39-8.627c-.809-.927-1.838-1.677-3.088-2.25-1.251-.575-2.714-.861-4.391-.861s-3.14.286-4.39.86c-1.252.574-2.281 1.324-3.09 2.25a9.487 9.487 0 00-1.831 3.178 11.06 11.06 0 00-.618 3.64c0 1.236.205 2.45.618 3.641a9.486 9.486 0 001.831 3.177c.809.927 1.838 1.677 3.09 2.25 1.25.575 2.713.861 4.39.861 1.677 0 3.14-.286 4.39-.86 1.25-.574 2.28-1.324 3.09-2.25a9.51 9.51 0 001.831-3.178c.412-1.192.618-2.405.618-3.64 0-1.236-.206-2.45-.618-3.641a9.51 9.51 0 00-1.832-3.177zM62.842 18.856c0 1.207-.03 2.265-.088 3.177-.06.912-.192 1.677-.397 2.295-.207.618-.515 1.08-.927 1.39-.413.309-.971.463-1.677.463-.706 0-1.265-.154-1.677-.464-.412-.308-.721-.771-.927-1.39-.206-.617-.338-1.382-.397-2.294-.059-.912-.088-1.97-.088-3.177v-3.442c0-1.177.029-2.236.088-3.178.059-.94.191-1.727.397-2.36.206-.633.515-1.118.927-1.457.412-.338.97-.507 1.677-.507.706 0 1.264.17 1.677.507.412.339.72.824.927 1.457.205.633.337 1.42.397 2.36.058.942.088 2.001.088 3.178v3.442zm4.39-8.627c-.809-.927-1.838-1.677-3.088-2.25-1.251-.575-2.714-.861-4.391-.861s-3.141.286-4.391.86c-1.25.574-2.28 1.324-3.089 2.25a9.48 9.48 0 00-1.831 3.178 11.056 11.056 0 000 7.281 9.48 9.48 0 001.831 3.177c.809.927 1.838 1.677 3.089 2.25 1.25.575 2.714.861 4.39.861 1.678 0 3.14-.286 4.392-.86 1.25-.574 2.279-1.324 3.088-2.25a9.505 9.505 0 001.832-3.178c.412-1.192.618-2.405.618-3.64 0-1.236-.206-2.45-.618-3.641a9.506 9.506 0 00-1.832-3.177zM17.321 24.653c-.748 1.11-1.938 1.664-3.568 1.664-.535 0-.969-.053-1.303-.16a1.379 1.379 0 01-.781-.622c-.188-.306-.308-.735-.361-1.282-.054-.548-.08-1.277-.08-2.185V.539h.961c1.284 0 2.26.147 2.927.441.668.294 1.19.789 1.564 1.483.266.481.454 1.016.561 1.604.107.588.16 1.297.16 2.125 0 1.202-.154 2.238-.46 3.107-.232.652-.526 1.165-.885 1.538-.067.08-.168.172-.31.275l-.021.014c-.016.012-.031.026-.047.037a2.76 2.76 0 01-.314.183 3.356 3.356 0 01-.157.078c-.834.386-1.741.423-2.061.423v.479s1.719-.082 2.995.678c.08.048.152.093.214.136.014.01.03.017.044.027a3.994 3.994 0 011.323 1.644c.481 1.177.722 2.686.722 4.53 0 2.433-.375 4.203-1.123 5.312m2.713-11.932c-1.038-.297-1.598-.355-1.919-.422-.32-.067-.173-.021-.534-.088-.36-.067-1.209-.166-1.903-.246 1.817-.08 2.573-.254 3.695-.521 1.123-.267 2.098-.682 2.927-1.243a4.622 4.622 0 001.524-1.684c.373-.695.56-1.43.56-2.205v-.018c-.004-1.278-.531-2.418-1.583-3.417-1.056-1.002-2.48-1.703-4.27-2.104a22.032 22.032 0 00-1.763-.341 26.58 26.58 0 00-2.004-.22 56.27 56.27 0 00-2.386-.12 82.018 82.018 0 00-1.66-.034H0v.4C.908.54 1.57.654 1.984.8c.414.147.755.407 1.023.782.24.347.42.748.54 1.202.121.455.181 1.083.181 1.884v16.918c0 .428-.013.789-.04 1.083a24.08 24.08 0 01-.08.762l-.08.64c-.08.429-.254.83-.521 1.204a2.473 2.473 0 01-1.063.801c-.414.161-1.062.268-1.944.321v.401h14.595c1.897 0 2.894-.173 4.418-.52 1.523-.348 2.812-.849 3.868-1.504 1.055-.655 1.864-1.45 2.426-2.386.56-.935.842-1.99.842-3.167 0-1.523-.536-2.853-1.604-3.989-1.07-1.136-2.587-2.057-4.51-2.511"></path></g></g></svg>